#!OML:ASF F:\VICON\USERDATA\INSTALL\rory3\rory3.ASF
:FULLY-SPECIFIED
:DEGREES
3383
root -5.78761 18.4055 2.47387 15.2153 -7.14933 353.933
lowerback 15.146 -1.42441 -2.40851
upperback 6.45606 -2.43004 -6.39711
thorax -1.82292 -1.17998 -4.98283
lowerneck -11.78 13.4209 -1.99537
upperneck 18.9288 19.3109 -2.98657
head 7.90323 8.65624 1.2878
rclavicle 3.65764e-014 7.31528e-014
rhumerus -17.818 38.248 -75.0651
rradius 85.9359
rwrist 32.5386
rhand -29.6901 10.7634
rfingers 7.12502
rthumb -3.01814 340.805
lclavicle 3.65764e-014 7.31528e-014
lhumerus -0.157334 -8.64571 91.1053
lradius 37.6506
lwrist 79.1009
lhand -29.3968 -304.17
lfingers 7.12502
lthumb -2.73495 -634.207
rfemur -19.579 15.4266 16.8063
rtibia 24.5457
rfoot -19.1268 -16.5213
rtoes -13.5328
lfemur -39.0753 -0.342702 -3.80485
ltibia 36.6313
lfoot -9.09752 9.10847
ltoes -1.8782
3384
root -5.77428 18.4113 2.49766 15.4673 -6.91659 353.872
lowerback 15.2259 -1.39581 -2.41483
upperback 6.38804 -2.40005 -6.35657
thorax -1.93349 -1.16539 -4.93858
lowerneck -11.7322 13.4174 -1.91028
upperneck 18.7858 19.2829 -3.01823
head 7.8586 8.65523 1.25462
rclavicle -3.18055e-014 -2.8625e-014
rhumerus -17.4564 39.2668 -75.8273
rradius 85.6418
rwrist 32.2463
rhand -29.5078 10.6274
rfingers 7.12502
rthumb -2.84208 340.667
lclavicle -3.18055e-014 -2.8625e-014
lhumerus 0.1555 -7.01236 90.6543
lradius 37.146
lwrist 77.6399
lhand -29.1943 -305.384
lfingers 7.12502
lthumb -2.53934 -635.42
rfemur -19.4931 15.362 16.8108
rtibia 24.0454
rfoot -18.9665 -16.7648
rtoes -13.6137
lfemur -39.2932 -0.719345 -3.81274
ltibia 36.042
lfoot -8.13043 9.50589
ltoes 0.304425
3385
root -5.76009 18.4279 2.52653 15.6424 -6.79615 353.928
lowerback 15.2501 -1.30143 -2.53002
upperback 6.37039 -2.29496 -6.37442
thorax -1.95365 -1.11424 -4.90957
lowerneck -11.6352 13.4158 -1.86759
upperneck 18.5947 19.2641 -3.07625
head 7.78841 8.65705 1.21391
rclavicle -6.36111e-015 -1.59028e-014
rhumerus -17.1711 40.0862 -76.6267
rradius 85.4135
rwrist 32.1568
rhand -29.5965 10.3776
rfingers 7.12502
rthumb -2.92778 340.418
lclavicle -6.36111e-015 -1.59028e-014
lhumerus 0.545569 -5.5451 90.15
lradius 36.5773
lwrist 76.2686
lhand -28.8781 -306.451
lfingers 7.12502
lthumb -2.23395 -636.483
rfemur -19.3492 15.4297 16.6684
rtibia 23.6162
rfoot -18.9731 -16.8595
rtoes -13.3042
lfemur -39.359 -1.04066 -4.02749
ltibia 35.6395
lfoot -7.7681 9.88292
ltoes 0.324689
3386
root -5.74368 18.4303 2.55732 15.7717 -6.68191 353.929
lowerback 15.3276 -1.16972 -2.61381
upperback 6.33388 -2.13984 -6.34571
thorax -2.01861 -1.03842 -4.85631
lowerneck -11.3497 13.4022 -1.81863
upperneck 18.3693 19.2288 -3.19948
head 7.68209 8.65154 1.1355
rclavicle -3.18055e-015 -1.90833e-014
rhumerus -16.9991 40.8472 -77.4392
rradius 85.2658
rwrist 32.0361
rhand -29.2896 9.95102
rfingers 7.12502
rthumb -2.63136 339.988
lclavicle -3.18055e-015 -1.90833e-014
lhumerus 0.892814 -4.32026 89.6303
lradius 35.9591
lwrist 75.241
lhand -28.4378 -307.661
lfingers 7.12502
lthumb -1.80874 -637.688
rfemur -19.167 15.5234 16.5939
rtibia 23.239
rfoot -18.9769 -16.9315
rtoes -13.0055
lfemur -39.423 -1.34481 -4.16811
ltibia 35.4526
lfoot -7.74099 10.4814
ltoes -0.856075
3387
root -5.72533 18.4287 2.59155 15.9051 -6.55067 353.905
lowerback 15.3873 -1.05036 -2.6522
upperback 6.30586 -1.99304 -6.31759
thorax -2.06779 -0.966128 -4.82875
lowerneck -11.0908 13.3904 -1.67457
upperneck 18.2121 19.1987 -3.38445
head 7.61916 8.64367 1.03297
rclavicle 3.02153e-014 7.95139e-014
rhumerus -16.8321 41.6732 -78.3153
rradius 85.1558
rwrist 31.8402
rhand -28.8197 9.19343
rfingers 7.12502
rthumb -2.17759 339.225
lclavicle 3.02153e-014 7.95139e-014
lhumerus 1.2075 -3.22337 89.0402
lradius 35.421
lwrist 74.3296
lhand -27.9152 -308.935
lfingers 7.12502
lthumb -1.30403 -638.959
rfemur -19.0336 15.551 16.5516
rtibia 22.9411
rfoot -18.9469 -17.0121
rtoes -12.8927
lfemur -39.5205 -1.59739 -4.26187
ltibia 35.4329
lfoot -7.81692 11.2227
ltoes -1.36246
3388
root -5.70645 18.4243 2.62841 16.1254 -6.37301 353.836
lowerback 15.2971 -0.951537 -2.68826
upperback 6.31983 -1.85809 -6.24
thorax -1.99245 -0.899923 -4.74897
lowerneck -10.9942 13.3635 -1.53897
upperneck 18.0873 19.1763 -3.65073
head 7.60326 8.62519 0.922683
rclavicle 1.59028e-014 -2.22639e-014
rhumerus -16.4426 42.5523 -79.0581
rradius 84.9458
rwrist 31.6755
rhand -28.8786 8.55877
rfingers 7.12502
rthumb -2.23449 338.591
lclavicle 1.59028e-014 -2.22639e-014
lhumerus 1.64638 -2.14324 88.4348
lradius 34.8598
lwrist 73.3796
lhand -27.3249 -310.105
lfingers 7.12502
lthumb -0.733841 -640.127
rfemur -19.0459 15.5493 16.5476
rtibia 22.8021
rfoot -19.0684 -17.1099
rtoes -12.6847
lfemur -39.67 -1.77635 -4.28167
ltibia 35.5373
lfoot -8.08993 11.7861
ltoes -2.22898
3389
root -5.68669 18.4177 2.66137 16.3629 -6.24698 353.761
lowerback 15.2668 -0.835097 -2.75043
upperback 6.30595 -1.70991 -6.16633
thorax -1.97748 -0.827691 -4.6599
lowerneck -11.037 13.3142 -1.6454
upperneck 18.0169 19.1077 -3.56979
head 7.56753 8.59765 0.953384
rclavicle -1.11319e-014 -4.77083e-014
rhumerus -16.0932 43.3577 -79.8727
rradius 84.7167
rwrist 31.7523
rhand -28.9364 8.02517
rfingers 7.12502
rthumb -2.29025 338.058
lclavicle -1.11319e-014 -4.77083e-014
lhumerus 2.09551 -1.18171 87.7536
lradius 34.3088
lwrist 72.4718
lhand -26.6444 -311.118
lfingers 7.12502
lthumb -0.0766021 -641.139
rfemur -19.1278 15.66 16.5202
rtibia 22.7195
rfoot -19.171 -17.3374
rtoes -12.5629
lfemur -39.791 -1.93184 -4.27965
ltibia 35.6856
lfoot -8.28835 12.1539
ltoes -3.8107
3390
root -5.66539 18.4147 2.69234 16.5888 -6.12972 353.787
lowerback 15.3438 -0.735627 -2.8786
upperback 6.26982 -1.6041 -6.15727
thorax -2.04612 -0.776618 -4.59469
lowerneck -11.1404 13.2945 -1.67735
upperneck 17.9904 19.0716 -3.4803
head 7.5633 8.58683 0.98694
rclavicle 2.8625e-014 2.54444e-014
rhumerus -15.6894 44.1471 -80.8097
rradius 84.3749
rwrist 31.8713
rhand -28.6865 7.64038
rfingers 7.12502
rthumb -2.0489 337.67
lclavicle 2.8625e-014 2.54444e-014
lhumerus 2.51343 -0.281836 86.9358
lradius 33.82
lwrist 71.6218
lhand -25.852 -311.797
lfingers 7.12502
lthumb 0.688711 -641.819
rfemur -19.2495 15.8047 16.3706
rtibia 22.652
rfoot -19.2016 -17.719
rtoes -12.7453
lfemur -39.9843 -2.16963 -4.32034
ltibia 35.7997
lfoot -8.32782 12.3478
ltoes -5.58518
3391
root -5.64619 18.4158 2.72745 16.7756 -5.96579 353.828
lowerback 15.3891 -0.638652 -3.02972
upperback 6.26372 -1.50085 -6.15405
thorax -2.06611 -0.726841 -4.52279
lowerneck -11.1018 13.2951 -1.60931
upperneck 17.8181 19.0513 -3.5147
head 7.50955 8.58922 0.955662
rclavicle 2.38542e-014 2.38542e-014
rhumerus -15.1932 44.966 -81.7276
rradius 83.9176
rwrist 32.0217
rhand -28.501 7.12218
rfingers 7.12502
rthumb -1.86978 337.151
lclavicle 2.38542e-014 2.38542e-014
lhumerus 3.00708 0.476862 86.0465
lradius 33.2288
lwrist 70.7734
lhand -24.9863 -312.282
lfingers 7.12502
lthumb 1.52483 -642.308
rfemur -19.2945 15.9107 16.2496
rtibia 22.5848
rfoot -19.2451 -18.1199
rtoes -12.9829
lfemur -40.1855 -2.50829 -4.26283
ltibia 35.838
lfoot -8.42788 12.4041
ltoes -6.54455
3392
root -5.63108 18.4204 2.76595 16.9229 -5.84372 353.956
lowerback 15.422 -0.48662 -3.34093
upperback 6.25212 -1.34851 -6.16576
thorax -2.07937 -0.65458 -4.38448
lowerneck -10.9839 13.2594 -1.52753
upperneck 17.6275 18.9766 -3.55972
head 7.43802 8.56856 0.907431
rclavicle -6.36111e-015 -4.77083e-015
rhumerus -14.7629 45.7166 -82.6646
rradius 83.4695
rwrist 32.2628
rhand -28.2226 6.43616
rfingers 7.12502
rthumb -1.60094 336.462
lclavicle -6.36111e-015 -4.77083e-015
lhumerus 3.48572 1.24731 85.2025
lradius 32.6179
lwrist 69.6443
lhand -24.0907 -312.503
lfingers 7.12502
lthumb 2.38972 -642.537
rfemur -19.288 15.991 16.0572
rtibia 22.514
rfoot -19.328 -18.4123
rtoes -13.277
lfemur -40.315 -2.68866 -4.3299
ltibia 35.7905
lfoot -8.53768 12.3567
ltoes -6.63206
3393
root -5.61803 18.4219 2.80379 17.0821 -5.76365 354.107
lowerback 15.4423 -0.298409 -3.70697
upperback 6.24386 -1.1565 -6.19026
thorax -2.08064 -0.563321 -4.23592
lowerneck -10.9527 13.1735 -1.4781
upperneck 17.5269 18.8352 -3.52393
head 7.39855 8.51485 0.891178
rclavicle -2.22639e-014 -7.31528e-014
rhumerus -14.3881 46.4137 -83.639
rradius 83.1006
rwrist 32.1992
rhand -27.4571 5.83879
rfingers 7.12502
rthumb -0.861601 335.861
lclavicle -2.22639e-014 -7.31528e-014
lhumerus 4.03184 1.97546 84.3313
lradius 31.955
lwrist 68.6121
lhand -23.3293 -312.501
lfingers 7.12502
lthumb 3.12507 -642.545
rfemur -19.296 16.0788 15.839
rtibia 22.4476
rfoot -19.3775 -18.7023
rtoes -13.6279
lfemur -40.4173 -2.54258 -4.5574
ltibia 35.7193
lfoot -8.57929 12.0677
ltoes -6.49657
3394
root -5.60197 18.4213 2.84287 17.2519 -5.60543 354.179
lowerback 15.4521 -0.138054 -3.9477
upperback 6.28348 -0.978325 -6.19936
thorax -2.03037 -0.477745 -4.13989
lowerneck -11.0388 13.0623 -1.5444
upperneck 17.3247 18.657 -3.38526
head 7.32376 8.44935 0.920783
rclavicle -3.65764e-014 -4.92986e-014
rhumerus -13.9098 47.038 -84.6088
rradius 82.6986
rwrist 32.0777
rhand -26.985 5.36303
rfingers 7.12502
rthumb -0.405568 335.384
lclavicle -3.65764e-014 -4.92986e-014
lhumerus 4.73145 2.52861 83.3736
lradius 31.2138
lwrist 67.8099
lhand -22.7253 -312.468
lfingers 7.12502
lthumb 3.7084 -642.521
rfemur -19.3052 16.2164 15.7038
rtibia 22.4115
rfoot -19.5276 -19.081
rtoes -13.5116
lfemur -40.5204 -2.2304 -4.78157
ltibia 35.6633
lfoot -8.48899 11.5172
ltoes -6.31016
3395
root -5.58482 18.4199 2.88347 17.4112 -5.45931 354.229
lowerback 15.4644 -0.00586879 -4.19279
upperback 6.28816 -0.839136 -6.17455
thorax -2.02087 -0.411846 -3.9984
lowerneck -11.0357 12.9596 -1.71189
upperneck 17.0872 18.4994 -3.23693
head 7.21261 8.39226 0.960086
rclavicle 3.18055e-015 1.27222e-014
rhumerus -13.5135 47.7586 -85.6455
rradius 82.2566
rwrist 32.108
rhand -27.1358 4.57217
rfingers 7.12502
rthumb -0.551208 334.593
lclavicle 3.18055e-015 1.27222e-014
lhumerus 5.41937 3.39042 82.4996
lradius 30.361
lwrist 66.7605
lhand -22.2105 -312.458
lfingers 7.12502
lthumb 4.20553 -642.52
rfemur -19.3101 16.3147 15.6046
rtibia 22.429
rfoot -19.728 -19.3756
rtoes -13.3434
lfemur -40.6048 -1.86887 -5.00515
ltibia 35.6566
lfoot -8.30338 10.8944
ltoes -6.81202
3396
root -5.56818 18.4174 2.92517 17.5514 -5.3688 354.284
lowerback 15.4541 0.181519 -4.42279
upperback 6.29433 -0.624474 -6.15498
thorax -1.99638 -0.308698 -3.88399
lowerneck -10.8859 12.8654 -1.70749
upperneck 16.7863 18.3632 -3.35591
head 7.10025 8.3368 0.887915
rclavicle -1.74931e-014 -4.77083e-014
rhumerus -13.0926 48.3146 -86.6705
rradius 81.7643
rwrist 32.112
rhand -27.0418 3.58813
rfingers 7.12502
rthumb -0.460466 333.609
lclavicle -1.74931e-014 -4.77083e-014
lhumerus 6.12488 4.05896 81.6592
lradius 29.875
lwrist 66.7262
lhand -23.6553 -310.787
lfingers 7.12502
lthumb 2.81027 -640.826
rfemur -19.3014 16.478 15.4734
rtibia 22.4384
rfoot -20.0041 -19.6174
rtoes -13.0055
lfemur -40.6626 -1.32803 -5.32765
ltibia 35.6882
lfoot -8.16665 10.2016
ltoes -7.90423
